<?xml version="1.0" encoding="iso-8859-1"?>
<!-- Generator: Adobe Illustrator 19.0.0, SVG Export Plug-In . SVG Version: 6.00 Build 0)  -->
<svg version="1.1" id="Capa_1" xmlns="http://www.w3.org/2000/svg" xmlns:xlink="http://www.w3.org/1999/xlink" x="0px" y="0px"
	 viewBox="0 0 512 512" style="enable-background:new 0 0 512 512;" xml:space="preserve">
<g>
	<g>
		<path d="M437.02,74.98C388.667,26.629,324.38,0,256,0S123.333,26.629,74.98,74.98C26.629,123.333,0,187.62,0,256
			s26.629,132.667,74.98,181.02C123.333,485.371,187.62,512,256,512s132.667-26.629,181.02-74.98
			C485.371,388.667,512,324.38,512,256S485.371,123.333,437.02,74.98z M119.331,140.544l91.232,91.232
			c-1.563,2.919-2.852,6.005-3.834,9.224H77.634C80.811,202.897,95.973,168.151,119.331,140.544z M77.634,271h129.094
			c0.982,3.219,2.272,6.305,3.834,9.224l-91.232,91.232C95.973,343.849,80.811,309.103,77.634,271z M241,434.365
			c-38.103-3.177-72.849-18.339-100.456-41.697l91.232-91.231c2.919,1.563,6.005,2.852,9.224,3.834V434.365z M241,206.729
			c-3.219,0.982-6.305,2.271-9.224,3.834l-91.232-91.232C168.151,95.973,202.897,80.811,241,77.634V206.729z M271,77.634
			c38.103,3.177,72.849,18.339,100.456,41.697l-91.232,91.232c-2.919-1.563-6.005-2.852-9.224-3.834V77.634z M271,434.366V305.271
			c3.219-0.982,6.305-2.271,9.224-3.834l91.232,91.232C343.849,416.027,309.103,431.189,271,434.366z M392.669,371.456
			l-91.232-91.232c1.563-2.919,2.852-6.005,3.834-9.224h129.094C431.189,309.103,416.027,343.849,392.669,371.456z M305.272,241
			c-0.982-3.219-2.272-6.305-3.834-9.224l91.232-91.232c23.358,27.607,38.52,62.353,41.697,100.456H305.272z"/>
	</g>
</g>
<g>
</g>
<g>
</g>
<g>
</g>
<g>
</g>
<g>
</g>
<g>
</g>
<g>
</g>
<g>
</g>
<g>
</g>
<g>
</g>
<g>
</g>
<g>
</g>
<g>
</g>
<g>
</g>
<g>
</g>
</svg>
