<svg enable-background="new 0 0 512 512" height="512" viewBox="0 0 512 512" width="512" xmlns="http://www.w3.org/2000/svg"><g id="_x33_0_Wheel"><g><path d="m256 7.923c-136.812 0-248.13 111.318-248.13 248.13 0 136.759 111.318 248.024 248.13 248.024s248.13-111.265 248.13-248.024c0-136.812-111.318-248.13-248.13-248.13zm46.828 240.144c-1.214-7.208-4.03-13.857-8.098-19.574l100.655-100.651c29.396 31.939 47.969 73.963 49.894 120.225zm-19.292-30.772c-5.735-4.086-12.409-6.911-19.645-8.122v-142.422c46.292 1.908 88.342 20.483 120.297 49.896zm-55.032-.027-100.682-100.634c31.943-29.394 73.97-47.963 120.235-49.882v142.429c-7.198 1.214-13.839 4.024-19.553 8.087zm-11.203 11.188c-4.085 5.726-6.913 12.387-8.13 19.611h-142.454c1.926-46.269 20.504-88.298 49.909-120.238zm-8.137 35.446c1.213 7.233 4.04 13.903 8.128 19.636l-100.661 100.661c-29.429-31.952-48.013-74.005-49.917-120.297zm19.329 30.826c5.716 4.066 12.361 6.879 19.563 8.094v142.426c-46.262-1.918-88.286-20.477-120.227-49.856zm35.399 8.102c7.241-1.212 13.918-4.039 19.656-8.129l100.634 100.679c-31.954 29.397-74.002 47.962-120.29 49.87zm30.847-19.329c4.073-5.725 6.887-12.382 8.096-19.599h142.446c-1.903 46.286-20.481 88.334-49.902 120.284z"/></g></g></svg>